<svg height="511pt" viewBox="-64 1 511 511.999" width="511pt" xmlns="http://www.w3.org/2000/svg"><path d="m352.175781 225.175781v-65.367187c0-88.121094-71.6875-159.808594-159.804687-159.808594-88.117188 0-159.808594 71.6875-159.808594 159.808594v65.367187c-18.238281 3.515625-32.0625 19.589844-32.0625 38.839844v208.417969c0 21.816406 17.75 39.566406 39.5625 39.566406h304.613281c21.816407 0 39.566407-17.75 39.566407-39.566406v-208.417969c0-19.25-13.824219-35.328125-32.066407-38.839844zm17.066407 247.261719c0 13.542969-11.019532 24.5625-24.566407 24.5625h-304.613281c-13.542969 0-24.5625-11.019531-24.5625-24.5625v-208.421875c0-13.542969 11.019531-24.5625 24.5625-24.5625h64.132812c4.140626 0 7.5-3.359375 7.5-7.5 0-4.144531-3.359374-7.5-7.5-7.5h-8.535156v-64.644531c0-53.328125 43.382813-96.710938 96.710938-96.710938 53.324218 0 96.707031 43.382813 96.707031 96.710938 0 4.140625 3.359375 7.5 7.5 7.5s7.5-3.359375 7.5-7.5c0-61.597656-50.113281-111.710938-111.707031-111.710938-61.597656 0-111.710938 50.113282-111.710938 111.710938v64.644531h-33.097656v-64.644531c0-79.847656 64.960938-144.808594 144.808594-144.808594s144.804687 64.960938 144.804687 144.808594v64.644531h-33.09375v-32.582031c0-4.144532-3.359375-7.5-7.5-7.5-4.144531 0-7.5 3.355468-7.5 7.5v32.582031h-152.820312c-4.144531 0-7.5 3.355469-7.5 7.5 0 4.140625 3.355469 7.5 7.5 7.5h208.414062c13.546875 0 24.566407 11.019531 24.566407 24.5625zm0 0"/><path d="m88.160156 312.628906c-4.140625 0-7.5 3.359375-7.5 7.5v40.597656h-25.078125v-40.597656c0-4.140625-3.359375-7.5-7.5-7.5-4.144531 0-7.5 3.359375-7.5 7.5v96.191406c0 4.144532 3.355469 7.5 7.5 7.5 4.140625 0 7.5-3.355468 7.5-7.5v-40.59375h25.078125v40.59375c0 4.144532 3.359375 7.5 7.5 7.5 4.144532 0 7.5-3.355468 7.5-7.5v-96.191406c0-4.140625-3.355468-7.5-7.5-7.5zm0 0"/><path d="m154.292969 312.628906h-40.082031c-4.140626 0-7.5 3.359375-7.5 7.5 0 4.144532 3.359374 7.5 7.5 7.5h12.542968v88.691406c0 4.144532 3.359375 7.5 7.5 7.5s7.5-3.355468 7.5-7.5v-88.691406h12.539063c4.140625 0 7.5-3.355468 7.5-7.5 0-4.140625-3.359375-7.5-7.5-7.5zm0 0"/><path d="m219.425781 312.628906h-40.082031c-4.140625 0-7.5 3.359375-7.5 7.5 0 4.144532 3.359375 7.5 7.5 7.5h12.542969v88.691406c0 4.144532 3.355469 7.5 7.5 7.5 4.140625 0 7.5-3.355468 7.5-7.5v-88.691406h12.539062c4.144531 0 7.5-3.355468 7.5-7.5 0-4.140625-3.359375-7.5-7.5-7.5zm0 0"/><path d="m262.011719 312.628906h-16.035157c-4.140624 0-7.5 3.359375-7.5 7.5v96.191406c0 4.144532 3.359376 7.5 7.5 7.5 4.144532 0 7.5-3.355468 7.5-7.5v-32.578124h8.535157c15.183593 0 27.539062-12.355469 27.539062-27.542969v-16.03125c0-15.183594-12.355469-27.539063-27.539062-27.539063zm12.539062 43.574219c0 6.914063-5.625 12.539063-12.539062 12.539063h-8.535157v-41.113282h8.535157c6.914062 0 12.539062 5.628906 12.539062 12.542969zm0 0"/><path d="m323.132812 327.628906c4.035157 0 8.53125 5.5625 8.53125 13.542969 0 4.140625 3.359376 7.5 7.5 7.5 4.144532 0 7.5-3.359375 7.5-7.5 0-15.738281-10.554687-28.542969-23.53125-28.542969-12.972656 0-23.53125 12.804688-23.53125 28.542969 0 19.554687 10.09375 27.5 19.558594 33.414063 8.816406 5.511718 12.503906 9.605468 12.503906 20.695312 0 7.980469-4.496093 13.539062-8.53125 13.539062-4.035156 0-8.53125-5.558593-8.53125-13.539062 0-4.144531-3.359374-7.5-7.5-7.5-4.140624 0-7.5 3.355469-7.5 7.5 0 15.738281 10.558594 28.539062 23.53125 28.539062 12.976563 0 23.53125-12.800781 23.53125-28.539062 0-19.554688-10.09375-27.5-19.554687-33.417969-8.820313-5.511719-12.507813-9.605469-12.507813-20.691406 0-7.980469 4.496094-13.542969 8.53125-13.542969zm0 0"/></svg>